<svg xmlns="http://www.w3.org/2000/svg" viewBox="0 0 116 116" width="116" height="116"><defs><clipPath id="artboard-1346903530113935470"><rect x="0" y="0" width="128" height="128"/></clipPath></defs><g>
<g clip-path="url(#artboard-1346903530113935470)">
	<g transform="matrix(1,0,0,1,64,64)">
		<g>
			<g>
				<g>
					<g>
						<g>
							<g>
								<g>
									<g>
										<g>
											<path d="M52,0 C52,28.71880340576172 28.71880340576172,52 0,52 C-28.718807220458984,52 -52,28.71880340576172 -52,0 C-52,-28.718807220458984 -28.718807220458984,-52 0,-52 C28.71880340576172,-52 52,-28.718807220458984 52,0 C52,0 52,0 52,0 Z" fill="none"/>
										</g>
									</g>
									<g>
										<g>
											<g>
												<g transform="matrix(0.846153846,0,0,0.843609627,0,0)">
													<path d="M52,0 C52,28.71880340576172 28.71880340576172,52 0,52 C-28.718807220458984,52 -52,28.71880340576172 -52,0 C-52,-28.718807220458984 -28.718807220458984,-52 0,-52 C28.71880340576172,-52 52,-28.718807220458984 52,0 C52,0 52,0 52,0 Z" fill="none" stroke="#63b3ed" stroke-width="16"/>
												</g>
											</g>
											<g>
												<g>
													<path d="M52,0 C52,28.71880340576172 28.71880340576172,52 0,52 C-28.718807220458984,52 -52,28.71880340576172 -52,0 C-52,-28.718807220458984 -28.718807220458984,-52 0,-52 C28.71880340576172,-52 52,-28.718807220458984 52,0 C52,0 52,0 52,0 Z" fill="none"/>
												</g>
											</g>
										</g>
									</g>
								</g>
								<g>
									<g>
										<g>
											<path d="M5,0 C5,2.7614212036132813 2.7614212036132813,5 0,5 C-2.761425018310547,5 -5,2.7614212036132813 -5,0 C-5,-2.761425018310547 -2.761425018310547,-5 0,-5 C2.7614212036132813,-5 5,-2.761425018310547 5,0 C5,0 5,0 5,0 Z" fill="#63b3ed"/>
										</g>
									</g>
								</g>
								<g>
									<g>
										<g>
											<path d="M0,0 C0,0 18,-20 18,-20" fill="none"/>
										</g>
									</g>
									<g>
										<g>
											<g>
												<path d="M0,0 C0,0 18,-20 18,-20" fill="none" stroke="#63b3ed" stroke-width="5" stroke-linecap="round"/>
											</g>
										</g>
									</g>
								</g>
								<g>
									<g transform="matrix(1,0,0,1,0,14)">
										<g>
											<path d="M4,-44 C4,-41.79086112976074 2.209136962890625,-40 0,-40 C-2.2091407775878906,-40 -4,-41.79086112976074 -4,-44 C-4,-46.20913887023926 -2.2091407775878906,-48 0,-48 C2.209136962890625,-48 4,-46.20913887023926 4,-44 C4,-44 4,-44 4,-44 Z" fill="#868e96"/>
										</g>
									</g>
								</g>
								<g>
									<g transform="matrix(1,0,0,1,-14,0)">
										<g>
											<path d="M48,0 C48,2.209136962890625 46.209136962890625,4 44,4 C41.790863037109375,4 40,2.209136962890625 40,0 C40,-2.2091407775878906 41.790863037109375,-4 44,-4 C46.209136962890625,-4 48,-2.2091407775878906 48,0 C48,0 48,0 48,0 Z" fill="#868e96"/>
										</g>
									</g>
								</g>
								<g>
									<g transform="matrix(1,0,0,1,0,-15)">
										<g>
											<path d="M4,44 C4,46.209136962890625 2.209136962890625,48 0,48 C-2.2091407775878906,48 -4,46.209136962890625 -4,44 C-4,41.790863037109375 -2.2091407775878906,40 0,40 C2.209136962890625,40 4,41.790863037109375 4,44 C4,44 4,44 4,44 Z" fill="#868e96"/>
										</g>
									</g>
								</g>
								<g>
									<g transform="matrix(1,0,0,1,14,0)">
										<g>
											<path d="M-40,0 C-40,2.209136962890625 -41.79086112976074,4 -44,4 C-46.20913887023926,4 -48,2.209136962890625 -48,0 C-48,-2.2091407775878906 -46.20913887023926,-4 -44,-4 C-41.79086112976074,-4 -40,-2.2091407775878906 -40,0 C-40,0 -40,0 -40,0 Z" fill="#868e96"/>
										</g>
									</g>
								</g>
								<g>
									<g transform="matrix(1,0,0,0.867892795,0,0)">
										<g>
											<path d="M0,0 C0,0 0,-36 0,-36" fill="none"/>
										</g>
									</g>
									<g transform="matrix(1,0,0,0.867892795,0,0)">
										<g>
											<g>
												<path d="M0,0 C0,0 0,-36 0,-36" fill="none" stroke="#63b3ed" stroke-width="4" stroke-linecap="round"/>
											</g>
										</g>
									</g>
								</g>
								<g>
									<g transform="matrix(-1.234169421,-1.234169421,0.953591929,-0.953591929,-40.330614664,1.759759467)">
										<g>
											<path d="M0,22 C27.01849365234375,22 27,22 27,22" fill="none"/>
										</g>
									</g>
									<g transform="matrix(-1.234169421,-1.234169421,0.953591929,-0.953591929,-40.330614664,1.759759467)">
										<g>
											<g>
												<path d="M0,22 C27.01849365234375,22 27,22 27,22" fill="none" stroke="#fd7e14" stroke-width="5"/>
											</g>
											<g>
												<g>
													<g>
														<path d="M14.166664123535156,43.25 C14.166664123535156,43.25 -7.083334495567897,21.99999766542874 -7.083334495567897,21.99999766542874 C-7.083334495567897,21.99999766542874 14.166667839003367,0.7499990463256836 14.166667839003367,0.7499990463256836 C14.166667839003367,0.7499990463256836 14.166664123535156,43.25 14.166664123535156,43.25 Z" fill="#fd7e14"/>
													</g>
												</g>
											</g>
										</g>
									</g>
								</g>
							</g>
						</g>
					</g>
				</g>
			</g>
		</g>
	</g>
</g></g></svg>