<svg width="16" xmlns="http://www.w3.org/2000/svg" height="16" id="screenshot-701c30b0-da08-80b5-8007-622cb718be3d" viewBox="0 0 16 16" xmlns:xlink="http://www.w3.org/1999/xlink" fill="none" version="1.1"><g id="shape-701c30b0-da08-80b5-8007-622cb718be3d"><defs><clipPath id="frame-clip-701c30b0-da08-80b5-8007-622cb718be3d-render-1" class="frame-clip frame-clip-def"><rect rx="0" ry="0" x="0" y="0" width="16" height="16" transform="matrix(1.000000, 0.000000, 0.000000, 1.000000, 0.000000, 0.000000)"/></clipPath></defs><g class="frame-container-wrapper"><g class="frame-container-blur"><g class="frame-container-shadows"><g clip-path="url(#frame-clip-701c30b0-da08-80b5-8007-622cb718be3d-render-1)" fill="none"><g class="fills" id="fills-701c30b0-da08-80b5-8007-622cb718be3d"><rect width="16" height="16" class="frame-background" x="0" transform="matrix(1.000000, 0.000000, 0.000000, 1.000000, 0.000000, 0.000000)" style="fill: rgb(255, 255, 255); fill-opacity: 1;" ry="0" rx="0" y="0"/></g><g class="frame-children"><g id="shape-701c30b0-da08-80b5-8007-622ca40cb6da"><g class="fills" id="fills-701c30b0-da08-80b5-8007-622ca40cb6da"><ellipse cx="8" cy="8" rx="7" ry="7" transform="matrix(1.000000, 0.000000, 0.000000, 1.000000, 0.000000, 0.000000)" fill="none" style="fill: none;"/></g><g fill="none" id="strokes-6ce31953-752f-8072-8007-622d67249bf4-701c30b0-da08-80b5-8007-622ca40cb6da" class="strokes"><g class="stroke-shape"><ellipse cx="8" cy="8" rx="7" ry="7" transform="matrix(1.000000, 0.000000, 0.000000, 1.000000, 0.000000, 0.000000)" style="fill: none; stroke-width: 1.5; stroke: rgb(0, 0, 0); stroke-opacity: 1;"/></g></g></g><g id="shape-701c30b0-da08-80b5-8007-622ca40cccf1"><g class="fills" id="fills-701c30b0-da08-80b5-8007-622ca40cccf1"><path d="M8,8L11.5,4.5" stroke-linecap="round"/></g><g stroke-linecap="round" id="strokes-6ce31953-752f-8072-8007-622d6725e96c-701c30b0-da08-80b5-8007-622ca40cccf1" class="strokes"><g class="stroke-shape"><path d="M8,8L11.5,4.5" style="fill: none; stroke-width: 1; stroke: rgb(0, 0, 0); stroke-opacity: 1;"/></g></g></g><g id="shape-701c30b0-da08-80b5-8007-622ca40cccf2"><g class="fills" id="fills-701c30b0-da08-80b5-8007-622ca40cccf2"><path d="M8,8L8,3" stroke-linecap="round"/></g><g stroke-linecap="round" id="strokes-6ce31953-752f-8072-8007-622d67267bc9-701c30b0-da08-80b5-8007-622ca40cccf2" class="strokes"><g class="stroke-shape"><path d="M8,8L8,3" style="fill: none; stroke-width: 1; stroke: rgb(0, 0, 0); stroke-opacity: 1;"/></g></g></g><g id="shape-701c30b0-da08-80b5-8007-622ca40d2dbd"><g class="fills" id="fills-701c30b0-da08-80b5-8007-622ca40d2dbd"><path d="M2.5,7.76776123046875L6.0355224609375,7.76776123046875M6.0355224609375,7.76776123046875L4.26776123046875,6M6.0355224609375,7.76776123046875L4.26776123046875,9.5355224609375" stroke-linecap="round" stroke-linejoin="round" fill="none" style="fill: none;"/></g><g stroke-linecap="round" stroke-linejoin="round" fill="none" id="strokes-6ce31953-752f-8072-8007-622d67272bbe-701c30b0-da08-80b5-8007-622ca40d2dbd" class="strokes"><g class="stroke-shape"><path d="M2.5,7.76776123046875L6.0355224609375,7.76776123046875M6.0355224609375,7.76776123046875L4.26776123046875,6M6.0355224609375,7.76776123046875L4.26776123046875,9.5355224609375" style="fill: none; stroke-width: 1.5; stroke: rgb(0, 0, 0); stroke-opacity: 1;"/></g></g></g></g></g></g></g></g></g></svg>